<svg width="32" height="32" viewBox="0 0 32 32" fill="none" xmlns="http://www.w3.org/2000/svg">
  <circle cx="16" cy="16" r="16" fill="#22c55e"/>
  <path d="M16 6C16 6 10 10 10 18C10 24 13 26 16 26C19 26 22 24 22 18C22 10 16 6 16 6Z" fill="white"/>
  <path d="M16 10L14 14L10 14L13 17L12 21L16 18L20 21L19 17L22 14L18 14L16 10Z" fill="#22c55e"/>
  <path d="M8 12C8 12 6 14 6 16C6 18 7 19 8 19C9 19 10 18 10 16C10 14 8 12 8 12Z" fill="white" opacity="0.8"/>
  <path d="M24 12C24 12 26 14 26 16C26 18 25 19 24 19C23 19 22 18 22 16C22 14 24 12 24 12Z" fill="white" opacity="0.8"/>
</svg>
